<svg xmlns="http://www.w3.org/2000/svg" preserveAspectRatio="xMidYMid meet" viewBox="0 0 202.5 30" zoomAndPan="magnify" xmlns:v="https://vecta.io/nano"><style><![CDATA[.B{clip-rule:nonzero}.C{fill:#d9d9d9}.D{fill-rule:evenodd}]]></style><defs><clipPath id="A"><path d="M4.3 1.3H31v26.5H4.3Zm0 0" class="B"/></clipPath><clipPath id="B"><path d="M8.5 1.3h18.3c2.2 0 4.1 1.8 4.1 4.1v18.3c0 2.3-1.9 4.1-4.1 4.1H8.4a4.2 4.2 0 0 1-4.2-4.1V5.4c0-2.3 1.9-4.1 4.2-4.1Zm0 0" class="B"/></clipPath><clipPath id="C"><path d="M9 4.7h17v16.8H9Zm0 0" class="B"/></clipPath><clipPath id="D"><path d="M7.1 11H9v7H7.1Zm0 0" class="B"/></clipPath><clipPath id="E"><path d="M26 11h2.2v7H26Zm0 0" class="B"/></clipPath></defs><path d="M36.2 12.8V7.2h-.6a6.8 6.8 0 0 0-.6 0h-1.4a202 202 0 0 0 0 4.6v9.9a5.2 5.2 0 0 1 1.3 0h.5l.6-.1v-.1a11.4 11.4 0 0 0 0-2.6v-2.7c0-.4.2-.7.3-.8a1.3 1.3 0 0 1 1.2-.5 1.5 1.5 0 0 1 .5.2l.3.4.1.5v.5l.1.5a22 22 0 0 1 0 2.4v1.2l.1 1h2.5v-5.4a35.5 35.5 0 0 0-.1-3c0-.4-.2-.7-.3-.8l-1-.5-1-.1c-.4 0-.8 0-1 .2l-1 .5-.3.1-.2.2zm11 7.7v1.1h.7a6 6 0 0 0 .6 0h1.4a104.4 104.4 0 0 0 0-10 5.4 5.4 0 0 1-1.4 0H48l-.5.1v.1l-.1 1.3a38.4 38.4 0 0 0 0 2.7v1.4c0 .3 0 .6-.2.7l-.6.4h-1.1v-.1a.8.8 0 0 1-.3-.4 3.4 3.4 0 0 1-.2-1v-4.1l-.1-1h-2.5v5.4a27.8 27.8 0 0 0 .1 3c0 .4.2.7.3.8l1 .5a3.6 3.6 0 0 0 3-.6l.3-.1.2-.2zm6.6-7.7v-1.1h-.6a6.8 6.8 0 0 0-.6 0h-1.4a100.2 100.2 0 0 0 0 10 5.4 5.4 0 0 1 1.3 0h.6l.6-.1v-.1a11.4 11.4 0 0 0 0-2.6 38.4 38.4 0 0 1 0-2.7c0-.4 0-.7.3-.8l.5-.4h.6a1.3 1.3 0 0 1 .5.1l.3.4.1.5v.5a18 18 0 0 1 .2 3 41.2 41.2 0 0 0 0 2.2h1.3l1.2-.1v-6.4a1.6 1.6 0 0 1 .8-.3h.4a1.4 1.4 0 0 1 .4.2l.3.4.1.5v.5l.1.5a47.3 47.3 0 0 1 0 4.7h1.3l1.3-.1V20a125.5 125.5 0 0 0-.1-6.8l-.3-.8-1-.5-1-.1c-.4 0-.8 0-1.1.2a3.8 3.8 0 0 0-1.2.6l-.2.1-.2-.3-1-.5-1-.1c-.4 0-.7 0-1 .2l-1 .5-.3.1-.2.2zm18.8-1.1a28.6 28.6 0 0 0-1.9 0h-.5a1.7 1.7 0 0 0-.4 0l-.1.4v.6l-.4-.6-.4-.2-.6-.1h-.7c-.4 0-.9 0-1.3.3l-1 1c-.3.4-.6.8-.8 1.4l-.2 1.8a9.4 9.4 0 0 0 .7 3.5c.2.5.5 1 1 1.3.3.4.7.6 1.2.6s1-.1 1.4-.4c.5-.2 1-.5 1.2-.8v1l.2.1h2.4c.1 0 .2 0 .2-.2v-.6l.1-4.2v-4.4a2.2 2.2 0 0 0 0-.5zm-5.7 4c0-.3.2-.6.5-1a2 2 0 0 1 1.3-.3h.6l.3.3.1.7a38.2 38.2 0 0 1 0 2.8l-.4.5-.8.2c-.5 0-1-.2-1.3-.7-.3-.4-.4-.9-.4-1.5v-1zm9.7-2.9v-1.1H76a7.6 7.6 0 0 0-.7 0H74a100.2 100.2 0 0 0 0 10 5.4 5.4 0 0 1 1.4 0h.5l.6-.1v-.1a11.4 11.4 0 0 0 0-2.6 38.4 38.4 0 0 1 0-2.7c0-.4.1-.7.3-.8l.5-.4h.6a1.3 1.3 0 0 1 .5.1c.2.1.2.2.3.4l.2.5v.5a18 18 0 0 1 .1 3v2.1h2.5v-3.4a63 63 0 0 0 0-5l-.4-.8-1-.5-1-.1c-.3 0-.7 0-1 .2l-1 .5-.2.1-.3.2zm8.6-1.2a16.9 16.9 0 0 1-2.3 0l-.2 2.4a91.3 91.3 0 0 0 .1 5v2.6h.5a21.6 21.6 0 0 0 2.2-.1 58.3 58.3 0 0 1 0-9.8zm-2.4-4.3a14 14 0 0 0 0 2.7h.9a16.5 16.5 0 0 0 1.5 0h.3v-.8a23 23 0 0 0 0-1.4v-.4zm11.9 4.4h-.4a32.7 32.7 0 0 1-2.2 0h-5.4v.8l-.1.6v1.7a54.8 54.8 0 0 1 4.5-.4 16 16 0 0 1-2.4 2.3 30.2 30.2 0 0 0-2.2 2.4v2.6l2-.1h2.1a333.5 333.5 0 0 0 4-.1v-2.8c-.7.1-1.5.2-2.2.1h-2.1a32 32 0 0 1 2.2-2.2 45 45 0 0 0 2.2-2.2v-2.7zm3.4 4.9h.6a24.8 24.8 0 0 0 3.3 0h1l.4-.1v-1.7l-.3-1.5a3 3 0 0 0-2.3-1.8 6 6 0 0 0-1.5-.1 5 5 0 0 0-2.6.8c-.4.3-.7.6-.8 1a108 108 0 0 0-.4 4.4 7.8 7.8 0 0 0 .8 2.9l1 1c.2.2.6.3 1 .3a22.4 22.4 0 0 1 2.5 0 4 4 0 0 0 1.2-.2c.3-.1.6-.3.8-.7l.3-.4.1-.7a14.6 14.6 0 0 0 .2-2h-2a6 6 0 0 1-.5 0c0 .6 0 1-.3 1.2a1 1 0 0 1-.7.5l-.8-.1-.7-.7-.2-.7v-1zm2.4-3c.2 0 .4.3.6.5l.2.7v.3h-.5a16.6 16.6 0 0 0-2 0h-.5l-.2-.1v-.3l.2-.5a.55.55 0 0 1 .3-.5l.4-.2a2.4 2.4 0 0 1 1.2 0h.3zm0 0"/><path d="m110.9 14.7-.2-1a64 64 0 0 0-1.2-5.3l-.2-.8H107l-.3.1a64.2 64.2 0 0 0-2.6 11.5 67.1 67.1 0 0 0-.4 2.4 23.4 23.4 0 0 1 2.8 0c.2-.2.3-.5.3-.8a14.2 14.2 0 0 0 .4-1.8l.2-.7h1.4l.2.7a15.5 15.5 0 0 1 .5 1.8l.2.7 1.4.2h1.3Zm-2 1.2a25.5 25.5 0 0 0-1.5 0 366 366 0 0 1 .7-4c0-.2.1-.1.2 0l.2 1.4.4 2.6Zm7.3-8.2a15.7 15.7 0 0 1-2.7-.1 2 2 0 0 0-.3 0 180.1 180.1 0 0 0 0 10.5l-.2 3.6h.7a48.1 48.1 0 0 0 3-.2 88.7 88.7 0 0 1-.1-10.3V7.7Zm0 0" fill="#737373"/><path d="M121.5 8h-.6a10 10 0 0 1-1.4 0h-.5v3.8h-1.5v2.4h1.4a56.2 56.2 0 0 0 .3 5.7c.2.4.5.7.9 1l1.3.5a10 10 0 0 0 3.3.2l.1-.6v-.8a7.5 7.5 0 0 0-.1-1.3 5.5 5.5 0 0 1-2.5-.3 1 1 0 0 1-.6-.5v-3.9h3v-.7a24.7 24.7 0 0 0 .1-1.4l-.1-.5-1.7.1-1.3.1a14 14 0 0 0 0-1.1Zm6.5 8.6h.6a24.8 24.8 0 0 0 3.2 0h1l.4-.1v-1.7c0-.5 0-1-.3-1.5a3 3 0 0 0-2.3-1.8 6 6 0 0 0-1.5-.1 5 5 0 0 0-2.6.8c-.4.3-.6.6-.8 1a108 108 0 0 0-.4 4.4 7.8 7.8 0 0 0 .9 2.9l.8 1 1 .3a22.4 22.4 0 0 1 2.6 0 4 4 0 0 0 1.2-.2c.3-.1.6-.3.9-.7l.2-.4.1-.7a14.6 14.6 0 0 0 .2-2h-2a6 6 0 0 1-.5 0c0 .6 0 1-.2 1.2a1 1 0 0 1-.8.5l-.8-.1-.7-.7-.2-.7v-1Zm2.3-3c.3 0 .5.3.6.5l.2.7v.3h-.5a16.6 16.6 0 0 0-1.9 0h-.6l-.1-.1v-.3l.1-.5c0-.2.2-.4.3-.5l.5-.2a2.4 2.4 0 0 1 1.1 0h.3Zm11.4-1.9h-.9a35.4 35.4 0 0 0-2.2 0l-.3.8a303.7 303.7 0 0 1-.7 2.6l-.2-.7a67 67 0 0 0-1-2.7h-2.8l1 2.5.6 2.5a19.8 19.8 0 0 1-.7 2.5l-.5 1.2c0 .4-.2.8-.3 1.1l.7.2h2.2l.5-1.6.5-1.7.3.8.2.8.2.8c0 .3.2.5.3.8h2.9l-.7-2.4c-.3-.9-.6-1.7-.7-2.5.1-.8.4-1.7.7-2.5l1-2.5Zm4.2-3.7h-.7a10 10 0 0 1-1.3 0h-.6v3.8H142v2.4h1.4a56.2 56.2 0 0 0 .3 5.7c.1.4.4.7.8 1l1.4.5a10 10 0 0 0 3.2.2l.2-.6v-.8a7.5 7.5 0 0 0-.2-1.3 5.5 5.5 0 0 1-2.5-.3l-.5-.5v-3.9h3v-.7a24.7 24.7 0 0 0 0-1.4v-.5l-1.8.1-1.3.1a14 14 0 0 0 0-1.1Zm0 0"/><g clip-path="url(#A)"><g clip-path="url(#B)"><path d="M4.3 1.3H31v26.5H4.3Zm0 0"/></g></g><g clip-path="url(#C)" class="C D"><path d="M22.1 21.5h-8.9c-2 0-3.6-1.6-3.6-3.6v-5.7c0-2 1.6-3.6 3.6-3.6h4V7.3c-.4-.2-.8-.7-.8-1.3 0-.7.6-1.3 1.3-1.3.7 0 1.3.6 1.3 1.3 0 .6-.4 1.1-1 1.3v1.3h4.1c2 0 3.6 1.6 3.6 3.6V18c0 1.9-1.6 3.5-3.6 3.5Zm-7.8-5.6c-1 0-1.9-.8-1.9-1.9 0-1 .9-1.8 2-1.8 1 0 1.8.8 1.8 1.8s-.8 1.9-1.9 1.9Zm0-3a1.1 1.1 0 1 0 0 2.3c.6 0 1.2-.5 1.2-1.2 0-.6-.6-1.1-1.2-1.1Zm6.7 3c-1 0-1.9-1-1.9-2a1.9 1.9 0 1 1 2 2Zm0-3a1.1 1.1 0 1 0 0 2.2 1.1 1.1 0 0 0 0-2.3ZM17.5 18c-.7 0-1.3-.4-1.6-.7-.2-.1-.2-.4 0-.5 0-.1.3-.2.4 0 .2 0 1.2 1 2.3 0h.5v.5c-.5.5-1 .7-1.6.7Zm0 0"/></g><g clip-path="url(#D)" class="C D"><path d="M9 17.5h-.2c-1 0-1.7-.7-1.7-1.6v-2.5c0-1 .8-1.7 1.7-1.7h.1v.5Zm0 0"/></g><g clip-path="url(#E)" class="C D"><path d="M26.6 17.5h-.2v-5.8h.2c.9 0 1.6.8 1.6 1.7v2.5c0 1-.7 1.6-1.6 1.6Zm0 0"/></g></svg>